<?xml version="1.0" encoding="utf-8"?>
<!-- Generator: Adobe Illustrator 16.0.0, SVG Export Plug-In . SVG Version: 6.00 Build 0)  -->
<!DOCTYPE svg PUBLIC "-//W3C//DTD SVG 1.1//EN" "http://www.w3.org/Graphics/SVG/1.1/DTD/svg11.dtd">
<svg version="1.1" id="Layer_1" xmlns="http://www.w3.org/2000/svg" xmlns:xlink="http://www.w3.org/1999/xlink" x="0px" y="0px"
	 width="600px" height="600px" viewBox="0 0 600 600" enable-background="new 0 0 600 600" xml:space="preserve">
<rect fill="#088DBB" width="600" height="600"/>
<g>
	<defs>
		<rect id="SVGID_1_" width="600" height="600"/>
	</defs>
	<clipPath id="SVGID_2_">
		<use xlink:href="#SVGID_1_"  overflow="visible"/>
	</clipPath>
	<path clip-path="url(#SVGID_2_)" fill="#084F69" d="M493.77,565.831c0,12.832-85.667,23.235-191.344,23.235
		s-191.344-10.403-191.344-23.235c0-12.835,100.493-23.234,191.344-23.234C410.573,542.597,493.77,552.996,493.77,565.831"/>
	<path clip-path="url(#SVGID_2_)" fill="#EAF7FE" d="M481.926,398.179c-5.922,0-12.301-2.733-16.857-23.69
		c-4.557-20.956-11.389-42.369-11.389-42.369c7.29,0,11.389-3.189,11.389-3.189c-5.012-2.278-15.945-10.022-23.234-19.589
		c-7.289-9.567-25.969-25.058-25.969-25.058v-30.979c0-20.957,13.44-37.357,13.44-37.357c-9.11,0-13.44,8.199-13.44,8.199v-44.191
		c0-43.735,22.096-63.324,22.096-63.324c-6.834-0.455-11.39,2.734-11.39,2.734c3.188-32.346,13.099-41.914,13.099-41.914
		c-36.445-9.567-56.777,11.846-56.777,11.846c-4.1-19.59,11.931-30.983,11.931-30.983c-18.678-4.1-34.126,1.367-34.126,1.367
		c0-28.702,11.411-38.275,11.411-38.275c-56.948,0-89.283,42.819-89.283,42.819c-2.277-18.224,2.739-34.184,2.739-34.184
		c-55.125,23.234-69.7,74.689-69.7,74.689c-3.644-8.656-4.099-28.305-4.099-28.305s-22.779,38.155-26.88,64.577
		c-4.1,26.424,3.644,102.279,3.644,102.279s-3.642-4.554-11.388-5.466c0,0,8.201,9.112,8.201,29.613c0,0-3.19-2.733-8.657-1.367
		c0,0,8.655,7.744,9.567,20.957c0,0-10.022,6.833-15.489,13.667c0,0-8.657,0.455-13.213,1.822c0,0,7.291,4.1,8.657,7.745
		c0,0-21.412,21.867-32.346,39.636c0,0,9.567-5.922,16.401-4.1c0,0-15.035,18.222-20.046,48.29c0,0,7.288-3.644,10.478-1.821
		c0,0-9.112,19.133-9.567,39.179l-10.023,5.923l7.745,5.467c0,0-5.923,24.603-7.29,38.725c0,0,4.556-4.556,8.201-5.922
		c0,0,5.012,11.844,11.845,20.956c6.834,9.112,22.325,16.857,31.436,16.857l17.126-0.669c-2.125,9.166-6.315,16.938-15.147,17.345
		l-0.979,1.572c-0.186-0.013-0.367-0.021-0.546-0.024c-0.175,2.676-5.575,3.157-7.061,5.011c-4.515,5.633-7.957,13.373-10.25,20.272
		c-1.681,5.059-0.886,5.057-2.05,10.251c-0.382,1.7-2.145,3.518-2.734,5.239c4.92-1.653,18.553-2.756,25.733-3.284l0.122,6.356
		c0,0,1.184,1.101,3.144,1.898c0.068-0.013,0.134-0.031,0.215-0.024c0.666,0.055,1.31,0.151,1.938,0.308
		c10.777-0.963,18.279,0.855,30.769-0.182c2.431-0.29,4.709-0.632,6.837-1.842c0.604-1.809,0.686-1.918,0.97-4.253
		c0.061-0.416,0.061-0.844,0.162-1.351c0.196-0.034,0.385-0.062,0.576-0.09c0.074-0.028,0.19-0.052,0.446-0.061
		c0.053-0.017,0.099-0.042,0.159-0.048c0.197-0.017,0.395-0.032,0.592-0.051c0.137-0.05,0.266-0.064,0.383-0.033
		c2.261-0.201,5.89-0.392,8.15-0.515c7.348-0.012,17.014,0.834,17.014,0.834c0.598-8.235,1.196-21.014,14.521-58.257l3.304-2.049
		c0,0,40.929,14.421,78.905-0.584c3.006,7.396,12.729,32.259,14.259,47.933c1.307,1.836,1.161,4.168,1.205,6.637
		c0.037,2.091,0.214,4.183,0.27,6.266c1.365-0.186,6.297-0.79,12.522-0.779c2.26,0.123,5.889,0.313,8.149,0.515
		c0.117-0.031,0.247-0.017,0.384,0.033c0.196,0.019,0.395,0.034,0.592,0.051c0.06,0.006,0.105,0.031,0.159,0.048
		c0.256,0.009,0.373,0.032,0.445,0.061c0.191,0.028,0.381,0.056,0.577,0.09c0.101,0.507,0.101,0.935,0.161,1.351
		c0.284,2.335,0.366,2.444,0.97,4.253c0.195,0.109,0.394,0.206,0.591,0.304c6.801-0.862,13.691-1.021,20.534-0.697
		c5.382,0.255,10.672,1.267,15.969,2.229c0.002,0.051,0.006,0.102,0.006,0.151c0.534,0.059,1.055,0.096,1.576,0.13
		c2.843,0.508,5.691,0.981,8.561,1.29c0.055-3.587,0.034-6.725-0.04-9.479c5.706,0.274,13.965,1.409,17.43,1.914
		c1.373,0.33,2.489,0.533,3.661,0.785c0.159,0.047,0.327,0.095,0.472,0.143c-0.006-0.014-0.013-0.028-0.018-0.042
		c1.176,0.265,2.443,0.598,4.117,1.18c-0.255-3.082-0.232-3.018-0.639-6.882c-0.315-2.987-2.457-12.066-6.468-15.812
		c0,0,4.369,1.889,5.702,2.64c-4.306-5.834-6.399-14.175-19.928-19.926c0,0,2.47-1.165,4.73-1.459
		c-2.361-1.454-4.165-2.027-6.556-1.854c0.813-2.307,4.386-8.123,7.384-8.87c0,0-1.841-1.279-4.849-0.29
		c-1.119,0.586-2.204,1.215-3.26,1.96c-0.399,0.28-0.981-0.012-1.099-0.447c-0.946-3.499-1.562-7.053-2.119-10.622
		c27.263-0.988,31.087-14.974,31.087-14.974c2.277,1.822,2.276,5.922,2.276,5.922c11.845-15.489,10.479-30.98,10.479-30.98
		c2.732,0.455,5.012,2.278,5.012,2.278c1.366-23.689-5.922-64.236-5.922-64.236c3.645,1.821,5.922-0.456,5.922-0.456
		c-4.101-1.82-4.556-6.378-4.556-6.378C481.016,403.646,481.926,398.179,481.926,398.179"/>
	<path clip-path="url(#SVGID_2_)" fill="#CDEAF5" d="M221.29,570.065c0,0,1.068-11.523-2.689-19.836c0,0,7.116,0.482,8.312,19.274
		C226.913,569.504,221.929,570.084,221.29,570.065"/>
	<path clip-path="url(#SVGID_2_)" fill="#CDEAF5" d="M185.569,531.209l0.044-0.354C185.638,531.03,185.634,531.165,185.569,531.209"
		/>
	<path clip-path="url(#SVGID_2_)" fill="#CDEAF5" d="M192.232,569.172c-0.041-0.011-0.064-0.017-0.064-0.017
		s0.029-0.079,0.083-0.217L192.232,569.172z"/>
	<path clip-path="url(#SVGID_2_)" fill="#CDEAF5" d="M282.828,64.225c-2.277-18.224,2.738-34.185,2.738-34.185
		c-55.125,23.235-69.702,74.69-69.702,74.69c-3.643-8.656-4.099-28.306-4.099-28.306s-22.779,38.156-26.879,64.578
		c-4.1,26.424,3.643,102.278,3.643,102.278s-3.642-4.554-11.387-5.465c0,0,8.2,9.112,8.2,29.613c0,0-3.19-2.734-8.657-1.367
		c0,0,8.656,7.744,9.567,20.956c0,0-10.022,6.834-15.489,13.667c0,0-8.657,0.455-13.212,1.822c0,0,7.29,4.101,8.657,7.745
		c0,0-21.413,21.868-32.347,39.636c0,0,9.567-5.922,16.401-4.101c0,0-15.035,18.223-20.046,48.292c0,0,7.289-3.645,10.478-1.822
		c0,0-9.112,19.133-9.567,39.179l-10.022,5.924l7.744,5.467c0,0-5.922,24.601-7.289,38.724c0,0,4.555-4.555,8.2-5.922
		c0,0,5.012,11.844,11.846,20.956c6.833,9.112,22.325,16.858,31.436,16.858l1.153-0.159c-0.508,3.142-1.08,6.27-1.914,9.353
		c-0.118,0.438-0.7,0.729-1.099,0.448c-1.055-0.745-2.141-1.374-3.259-1.96c-3.009-0.989-4.849,0.29-4.849,0.29
		c2.998,0.747,6.571,6.563,7.384,8.87c-2.391-0.173-4.194,0.398-6.555,1.854c2.259,0.294,4.73,1.459,4.73,1.459
		c-13.529,5.751-15.623,14.092-19.929,19.926c1.334-0.752,5.702-2.64,5.702-2.64c-4.009,3.745-6.151,12.824-6.466,15.812
		c-0.407,3.863-0.385,3.8-0.64,6.882c3.587-1.247,5.33-1.37,8.233-2.066c4.486-0.653,17.023-2.372,21.627-1.894l-0.726,8.856
		c0,0,0.092,0,0.227-0.003c2.364-0.678,4.29-0.587,6.399-0.813c0.031-2.441,0.159-4.88,0.359-7.312
		c-0.142-4.157,0.375-7.941,1.224-12.161c0.028-0.141,0.063-0.29,0.092-0.432c1.672-5.76,4.582-9.039,6.472-11.056
		c0.627-0.67,1.172-1.463,1.638-2.275c1.127-1.502,2.299-3.457,3.204-5.925c1.874-5.111,1.071-16.338-2.693-27.296
		c3.969,5.708,7.584,10.719,9.297,12.432l-0.113-13.951c0,0,7.289,7.285,13.813,12.787c3.14,2.743,7.015,6.312,9.766,7.731
		c0.199,0.125,0.378-1.2,0.597,0.8h-0.002c0.028,0,0.055-0.396,0.083-0.38c3.694,2.073,7.496,3.719,11.054,6.022
		c0.38,0.245,0.77,0.364,1.144,0.622c1.647,1.134,4.546,2.395,7.151,3.769l2.464,29.096c2.221-30.581,19.647-59.864,19.647-59.864
		l-0.638-0.195c-5.392-1.667-44.845-15.315-68.154-64.053c-1.535-3.21,8.655,3.644,8.655,3.644
		c-9.567-23.234-13.212-60.593-13.212-60.593c3.189,2.733,6.379,3.188,6.379,3.188c-6.834-19.135-9.568-42.825-9.568-64.237
		c-1.821-115.262,40.776-141.685,40.776-141.685c-7.289-2.734-15.034-2.506-15.034-2.506c8.428-20.272,36.445-48.519,36.445-48.519
		c-7.517,0.457-36.902,8.427-36.902,8.427c24.373-63.553,48.976-80.409,48.976-80.409c-1.822,15.261,4.1,31.435,4.1,31.435
		c52.848-65.377,95.309-62.327,95.309-62.327c3.147-6.557,6.725-11.029,6.725-11.029C315.165,21.406,282.828,64.225,282.828,64.225"
		/>
	<path clip-path="url(#SVGID_2_)" fill="#CDEAF5" d="M432.209,569.705c0,0-0.514-16.517-4.271-24.83c0,0,9.796,6.037,9.739,25.113
		C437.677,569.988,432.848,569.724,432.209,569.705"/>
	<path clip-path="url(#SVGID_2_)" fill="#ABDBE2" d="M177.361,484.763c6.452-63.192,8.209-186.813,8.209-186.813
		c-14.01,27.677-25.285,77.905-25.285,77.905l2.733,10.934l-6.15-2.733c-9.885,34.306-3.197,80.229-0.982,93.167
		C162.174,482.198,169.664,483.878,177.361,484.763"/>
	<path clip-path="url(#SVGID_2_)" fill="#ABDBE2" d="M164.146,483.397c2.003,10.113,4.081,19.854,6.389,29.899
		c1.709,0.256,3.631,0.128,3.631,0.128c1.568-6.109,1.828-15.565,3.047-27.198C172.721,485.701,168.314,484.903,164.146,483.397"/>
	<path clip-path="url(#SVGID_2_)" fill="#CDEAF5" d="M378.252,537.851c-0.367,0.106-0.646-0.057-0.797-0.308
		c-0.709,0.139-1.251,0.267-1.616,0.359c0-0.001,0.001-0.001,0.001-0.001c9.399-6.841,10.263-14.073,10.263-14.073
		c-6.234,2.811-12.854,3.861-16.073,4.231c21.725-18.832,25.335-53.798,25.335-53.798c-8.898,10.923-21.526,20.153-31.285,26.349
		l0.021-0.041c0,0-6.539,3.656-12.581,6.503c-0.266-0.04-0.53,0.03-0.729,0.34c-3.104,1.438-5.998,2.611-7.703,2.896
		c0,0,5.032,9.291,7.133,14.301l-0.412,0.334c0,0,7.279,17.206,9.929,33.872c0.28,2.817,0.497,5.284,0.647,7.169
		c0.127,2.439,0.3,4.119,0.3,4.119c9.625-1.424,23.221-0.037,23.221-0.037c-0.065,1.568,0.796,5.332,0.954,6.014
		c4.57-0.616,9.182-0.885,13.795-0.925C398.59,559.001,397.88,532.159,378.252,537.851"/>
	<path clip-path="url(#SVGID_2_)" fill="#85C0CE" d="M176.856,489.637c-15.094-2.553-28.79-19.898-28.79-19.898
		c11.005,11.701,24.704,13.269,24.704,13.269c1.809-13.364-9.237-43.951-9.237-43.951c8.18,10.188,12.656,21.973,15.102,31.616
		L176.856,489.637z"/>
	<path clip-path="url(#SVGID_2_)" fill="#ABDBE2" d="M211.11,465.974c0,0,11.874,20.928,22.295,29.983
		c11.246,9.771,21.697,23.576,26.139,31.948c0,0,5.638-13.098,8.713-17.653C268.257,510.252,234.943,500.483,211.11,465.974"/>
	<path clip-path="url(#SVGID_2_)" fill="#ABDBE2" d="M366.089,506.792c1.651-2.322,3.542-4.482,5.344-6.688
		c2.955-3.618,6.331-7.13,8.812-11.066c-4.282,3.204-9.05,5.98-13.925,8.913c-14.146,9.586-24.003,12.301-24.003,12.301
		c3.075,4.556,8.714,17.651,8.714,17.651c2.688-5.065,7.585-12.122,13.52-19.072C365.049,508.14,365.603,507.477,366.089,506.792"/>
	<path clip-path="url(#SVGID_2_)" fill="#5C5B5D" d="M206.605,154.316c-1.295,0.094-5.44,0.199-5.44,0.199
		c-37.563,2.621-65.173-26.486-65.173-26.486s-2.468,22.721,13.849,42.631c16.322,19.909,49.396,23.317,49.396,23.317
		c1.075,4.655-1.253,15.038-1.253,15.038s9.671-10.698,12.127-30.968C211.837,163.843,207.408,154.257,206.605,154.316"/>
	<path clip-path="url(#SVGID_2_)" fill="#747F83" d="M206.605,154.316c-1.245,0.071-5.44,0.199-5.44,0.199
		c-37.563,2.621-65.173-26.486-65.173-26.486s17.161,49.661,74.469,45.736C210.462,173.766,212.046,164.581,206.605,154.316"/>
	<path clip-path="url(#SVGID_2_)" fill="#5C5B5D" d="M394.146,154.316c1.295,0.094,5.44,0.199,5.44,0.199
		c37.562,2.621,65.173-26.486,65.173-26.486s2.468,22.721-13.849,42.631c-16.322,19.909-49.396,23.317-49.396,23.317
		c-1.075,4.655,1.253,15.038,1.253,15.038s-9.671-10.698-12.127-30.968C388.915,163.843,393.344,154.257,394.146,154.316"/>
	<path clip-path="url(#SVGID_2_)" fill="#747F83" d="M394.146,154.316c1.245,0.071,5.44,0.199,5.44,0.199
		c37.562,2.621,65.173-26.486,65.173-26.486s-17.161,49.661-74.469,45.736C390.29,173.766,388.706,164.581,394.146,154.316"/>
	<path clip-path="url(#SVGID_2_)" fill="#CDEAF5" d="M187,322.551c0,0-27,97.039,0,159.227V322.551z"/>
	<path clip-path="url(#SVGID_2_)" fill="#CDEAF5" d="M455.843,476.05c-13.326,10.169-27.191,10.813-27.191,10.813
		c-0.618-13.286,13.905-42.331,13.905-42.331c-3.305,1.952-5.96,4.312-8.145,6.901l-0.096-9.747l10.478-8.656l-8.427-6.834
		l10.705-43.052l-10.251,6.834c0,0-3.187-61.273-0.909-87.699c0,0-12.984-12.985-19.363-18.224c0,0,1.205,18.866,2.58,49.011
		c5.818,24.181,14.856,74.224,3.614,118.233c0.13,8.922,0.226,17.981,0.277,27.127c0,0,5.603,19.465,7.424,33.133
		c0,0,1.822,0.512,4.556,0.057l-0.205-20.931C448.87,486.435,455.843,476.05,455.843,476.05"/>
	<path clip-path="url(#SVGID_2_)" fill="#CDEAF5" d="M329.531,288.15c0,10.349,6.628,18.739,14.807,18.739
		c8.178,0,14.809-8.39,14.809-18.739c0-10.352-6.631-18.742-14.809-18.742C336.159,269.409,329.531,277.798,329.531,288.15"/>
	<path clip-path="url(#SVGID_2_)" fill="#FFFFFF" d="M329.987,283.144c0,10.19,6.527,18.451,14.579,18.451
		s14.579-8.261,14.579-18.451c0-10.191-6.527-18.451-14.579-18.451S329.987,272.953,329.987,283.144"/>
	<path clip-path="url(#SVGID_2_)" fill="#4F4E51" d="M340.696,273.631c-0.116,0.453-0.196,0.925-0.196,1.426
		c0,2.598,1.694,4.703,3.782,4.703c1.855,0,3.393-1.664,3.713-3.857c1.19,1.561,1.925,3.665,1.925,5.987
		c0,4.813-3.136,8.713-7.004,8.713s-7.005-3.9-7.005-8.713C335.911,278.044,337.916,274.788,340.696,273.631"/>
	<path clip-path="url(#SVGID_2_)" fill="#CDEAF5" d="M258.46,288.15c0,10.349,6.628,18.739,14.807,18.739
		c8.178,0,14.808-8.39,14.808-18.739c0-10.352-6.63-18.742-14.808-18.742C265.088,269.409,258.46,277.798,258.46,288.15"/>
	<path clip-path="url(#SVGID_2_)" fill="#FFFFFF" d="M258.917,283.144c0,10.19,6.527,18.451,14.579,18.451
		c8.052,0,14.579-8.261,14.579-18.451c0-10.191-6.527-18.451-14.579-18.451C265.444,264.693,258.917,272.953,258.917,283.144"/>
	<path clip-path="url(#SVGID_2_)" fill="#4F4E51" d="M272.359,273.631c-0.116,0.453-0.196,0.925-0.196,1.426
		c0,2.598,1.694,4.703,3.782,4.703c1.856,0,3.393-1.664,3.713-3.857c1.191,1.561,1.925,3.665,1.925,5.987
		c0,4.813-3.136,8.713-7.004,8.713c-3.868,0-7.005-3.9-7.005-8.713C267.574,278.044,269.579,274.788,272.359,273.631"/>
	<path clip-path="url(#SVGID_2_)" fill="#5C5B5D" d="M394.425,265.647c-6.603-0.965-18.127-2.06-31.96-1.354
		c-18.001,0.926-33.425,3.425-42.639,4.917c-2.75,0.446-4.911,0.798-6.561,1.016l-1.799,0.244c-2.021,0.278-3.346,0.454-4.475,0.51
		c-1.13-0.056-2.455-0.232-4.477-0.51l-1.799-0.244c-1.647-0.218-3.809-0.57-6.56-1.016c-9.213-1.492-24.637-3.991-42.638-4.917
		c-13.833-0.706-25.357,0.389-31.96,1.354c0,0-7.046,0.897-13.072,3.446l1.149,7.658c0,0,6.367-1.516,12.586-2.346
		c1.156,10.801,3.405,24.679,3.405,24.679l0.036,0.43c0.171,0.699,0.33,1.378,0.502,2.119c1.281,5.458,2.553,8.665,7.671,10.59
		c5.026,1.896,16.918,3.654,28.913,4.272c4.46,0.23,9.522-0.045,14.642-0.789c7.593-1.109,14.46-3.152,17.084-5.094
		c3.819-2.821,5.861-9.922,7.213-14.62l0.405-1.386c0.478-1.602,0.894-3.283,1.294-4.916c0.577-2.342,1.173-4.763,1.682-5.599
		c0.092-0.145,0.52-0.651,2.188-0.895c0.517-0.075,1.098-0.115,1.735-0.123c0.638,0.008,1.218,0.048,1.735,0.123
		c1.668,0.244,2.097,0.75,2.188,0.895c0.508,0.836,1.104,3.257,1.68,5.599c0.402,1.633,0.817,3.314,1.295,4.916l0.404,1.386
		c1.353,4.698,3.395,11.798,7.213,14.62c2.624,1.941,9.491,3.984,17.084,5.094c5.12,0.744,10.184,1.02,14.643,0.789
		c11.995-0.618,23.887-2.377,28.914-4.272c5.116-1.925,6.389-5.132,7.67-10.59c0.173-0.741,0.332-1.42,0.502-2.119l0.036-0.43
		c0,0,2.249-13.878,3.404-24.679c6.221,0.83,12.586,2.346,12.586,2.346l1.15-7.658C401.471,266.544,394.425,265.647,394.425,265.647
		 M295.114,282.278l-0.016,0.126c-0.3,2.482-1.933,15.072-4.587,19.361c-2.571,4.143-3.481,5.177-11.475,6.529
		c-0.341,0.058-0.7,0.111-1.073,0.166c-8.623,1.26-24.369,1.479-33.177-0.211l-0.611-0.118c-8.989-1.737-12.145-2.481-13.073-5.277
		c-1.256-3.78-3.667-21.246-3.844-24.991c-0.137-2.843,2.537-4.143,3.263-4.335c0.452-0.12,1.185-0.254,2.174-0.399
		c6.311-0.923,20.11-1.829,26.621-1.542c8.246,0.371,28.369,3.211,32.903,5.244C295.591,278.341,295.433,279.654,295.114,282.278
		 M382.882,302.854c-0.929,2.796-4.084,3.54-13.073,5.277l-0.611,0.118c-8.808,1.69-24.553,1.471-33.177,0.211
		c-0.372-0.055-0.731-0.108-1.073-0.166c-7.993-1.353-8.904-2.387-11.475-6.529c-2.654-4.289-4.286-16.879-4.588-19.361
		l-0.016-0.126c-0.319-2.624-0.476-3.937,2.895-5.447c4.534-2.033,24.658-4.873,32.904-5.244c6.51-0.287,20.311,0.619,26.62,1.542
		c0.989,0.145,1.722,0.279,2.175,0.399c0.727,0.192,3.399,1.492,3.264,4.335C386.548,281.607,384.138,299.074,382.882,302.854"/>
	<path clip-path="url(#SVGID_2_)" fill="#A1D4E9" d="M277.838,246.251c0,0-16.469-7.855-25.895,6.73c0,0-0.973-14.503,12.328-16.124
		C277.571,235.234,277.838,246.251,277.838,246.251"/>
	<path clip-path="url(#SVGID_2_)" fill="#A1D4E9" d="M271.661,224.941c0,0-15.266-7.205-22.223,6.642c0,0-2.271-12.098,8.624-15.019
		C268.957,213.644,271.661,224.941,271.661,224.941"/>
	<path clip-path="url(#SVGID_2_)" fill="#A1D4E9" d="M336.832,255.143c0,0,12.791-6.1,20.111,5.228c0,0,0.756-11.264-9.573-12.524
		C337.039,246.587,336.832,255.143,336.832,255.143"/>
	<path clip-path="url(#SVGID_2_)" fill="#A1D4E9" d="M345.927,234.97c0,0,12.942-2.095,15.158,9.734c0,0,4.297-8.541-3.207-13.061
		C350.374,227.119,345.927,234.97,345.927,234.97"/>
	<path clip-path="url(#SVGID_2_)" fill="#B2DEEF" d="M276.692,361.145c0,0,9.036-6.073,14.371-6.91c0,0,1.164,11.46,6.464,17.107
		c0,0,11.438-10.312,22.75-11.045c0,0,2.92,6.283,7.661,8.614l-0.026,0.073c1.712,1.068,3.807,2.148,5.837,2.599
		c0,0,6.491-3.93,8.37-11.104c0,0,0.625,15.148-8.883,23.405c0,0-7.252-3.538-12.476-9.202c-1.568-1.529-3.199-3.306-3.992-4.751
		c0,0-16.776,11.869-17.389,18.637c0,0-12.109-11.807-16.239-20.904c0,0-8.082,2.551-10.324,4.195c0,0-6.496-10.625-7.815-20.212
		C265.001,351.646,272.813,359.107,276.692,361.145"/>
	<path clip-path="url(#SVGID_2_)" fill="#5C5B5D" d="M307.187,331.369c-0.67-0.143,17.017,1.225,34.382,0.607
		c0,0,0.929-3.312,2.261-5.133c0,0-0.29,5.577,1.271,6.718c0,0-8.691,3.421-17.455,3.396c0,0,9.55-1.595,12.754-3.242
		C340.398,333.715,322.971,334.685,307.187,331.369"/>
</g>
</svg>
