<?xml version="1.0" encoding="utf-8"?>
<!-- Generator: Adobe Illustrator 16.0.0, SVG Export Plug-In . SVG Version: 6.00 Build 0)  -->
<!DOCTYPE svg PUBLIC "-//W3C//DTD SVG 1.1//EN" "http://www.w3.org/Graphics/SVG/1.1/DTD/svg11.dtd">
<svg version="1.1" id="iconmonstr" xmlns="http://www.w3.org/2000/svg" xmlns:xlink="http://www.w3.org/1999/xlink" x="0px" y="0px"
	 width="24px" height="24px" viewBox="0 0 24 24" style="enable-background:new 0 0 24 24;" xml:space="preserve">
<style type="text/css">
<![CDATA[
	.st0{fill:#FFFFFF;stroke:#072438;stroke-miterlimit:10;}
]]>
</style>
<path id="linkedin-3" class="st0" d="M19,0H5C2.239,0,0,2.239,0,5v14c0,2.762,2.239,5,5,5h14c2.762,0,5-2.238,5-5V5
	C24,2.239,21.762,0,19,0z M8,19H5V8h3V19z M6.5,6.733c-0.966,0-1.75-0.79-1.75-1.764S5.534,3.205,6.5,3.205s1.75,0.79,1.75,1.764
	S7.467,6.733,6.5,6.733z M20,19h-3c0,0,0-4.068,0-5.604c0-3.368-4-3.113-4,0C13,15.039,13,19,13,19h-3V8h3v1.765
	c1.397-2.586,7-2.777,7,2.476C20,15.098,20,19,20,19z"/>
</svg>
